<mxfile host="app.diagrams.net" agent="Mozilla/5.0 (X11; Linux x86_64) AppleWebKit/537.36 (KHTML, like Gecko) Chrome/116.0.0.0 Safari/537.36" version="24.7.16">
  <diagram name="Sivu-1" id="ggbjfOj95FqudFDkk8cE">
    <mxGraphModel dx="581" dy="326" grid="1" gridSize="10" guides="1" tooltips="1" connect="1" arrows="1" fold="1" page="1" pageScale="1" pageWidth="827" pageHeight="1169" math="0" shadow="0">
      <root>
        <mxCell id="0" />
        <mxCell id="1" parent="0" />
        <mxCell id="AOhq4kajDDy-bIf-BOWg-4" value="a" style="edgeStyle=orthogonalEdgeStyle;rounded=0;orthogonalLoop=1;jettySize=auto;html=1;entryX=0;entryY=0.5;entryDx=0;entryDy=0;" edge="1" parent="1" source="AOhq4kajDDy-bIf-BOWg-1" target="AOhq4kajDDy-bIf-BOWg-2">
          <mxGeometry relative="1" as="geometry" />
        </mxCell>
        <mxCell id="AOhq4kajDDy-bIf-BOWg-1" value="A" style="ellipse;whiteSpace=wrap;html=1;" vertex="1" parent="1">
          <mxGeometry x="110" y="140" width="40" height="40" as="geometry" />
        </mxCell>
        <mxCell id="AOhq4kajDDy-bIf-BOWg-5" value="b" style="edgeStyle=orthogonalEdgeStyle;rounded=0;orthogonalLoop=1;jettySize=auto;html=1;entryX=0.5;entryY=0;entryDx=0;entryDy=0;" edge="1" parent="1" source="AOhq4kajDDy-bIf-BOWg-2" target="AOhq4kajDDy-bIf-BOWg-3">
          <mxGeometry relative="1" as="geometry" />
        </mxCell>
        <mxCell id="AOhq4kajDDy-bIf-BOWg-6" value="b" style="edgeStyle=orthogonalEdgeStyle;rounded=0;orthogonalLoop=1;jettySize=auto;html=1;exitX=0;exitY=1;exitDx=0;exitDy=0;" edge="1" parent="1" source="AOhq4kajDDy-bIf-BOWg-2" target="AOhq4kajDDy-bIf-BOWg-1">
          <mxGeometry relative="1" as="geometry">
            <Array as="points">
              <mxPoint x="240" y="174" />
              <mxPoint x="240" y="200" />
              <mxPoint x="130" y="200" />
            </Array>
          </mxGeometry>
        </mxCell>
        <mxCell id="AOhq4kajDDy-bIf-BOWg-2" value="B" style="ellipse;whiteSpace=wrap;html=1;" vertex="1" parent="1">
          <mxGeometry x="240" y="140" width="40" height="40" as="geometry" />
        </mxCell>
        <mxCell id="AOhq4kajDDy-bIf-BOWg-3" value="C" style="ellipse;whiteSpace=wrap;html=1;" vertex="1" parent="1">
          <mxGeometry x="240" y="260" width="40" height="40" as="geometry" />
        </mxCell>
      </root>
    </mxGraphModel>
  </diagram>
</mxfile>
